Coordinates
version=1
nRows=8
nColumns=34
inDegrees=yes

Units are S.I. units (second, meters, Newtons, ...)
If the header above contains a line with 'inDegrees', this indicates whether rotational values are in degrees (yes) or radians (no).

endheader
time	pelvis_tilt	pelvis_list	pelvis_rotation	pelvis_tx	pelvis_ty	pelvis_tz	hip_flexion_r	hip_adduction_r	hip_rotation_r	knee_angle_r	ankle_angle_r	subtalar_angle_r	mtp_angle_r	hip_flexion_l	hip_adduction_l	hip_rotation_l	knee_angle_l	ankle_angle_l	subtalar_angle_l	mtp_angle_l	lumbar_extension	lumbar_bending	lumbar_rotation	arm_flex_r	arm_add_r	arm_rot_r	elbow_flex_r	pro_sup_r	arm_flex_l	arm_add_l	arm_rot_l	elbow_flex_l	pro_sup_l
      7.30000000	    -44.53923043	      2.30668239	      7.47520826	      0.99450394	      0.72958159	     -0.08613691	    105.80990337	    -20.34333458	      3.96091111	    102.99412611	     26.34993928	    -31.55201431	      0.00000000	    107.62557227	    -13.71447039	     -5.11444469	    100.66930416	     30.36086276	     -5.42355615	      0.00000000	    -42.62964361	      1.02577686	     -6.53032519	     59.25697199	    -33.36473424	     14.16161842	     79.52932369	     81.93792155	     82.28735837	    -22.77341422	     36.17671319	     41.02340721	     56.61202932
      7.31666670	    -43.78818836	      2.21447540	      7.92176614	      1.00995787	      0.74986763	     -0.08772019	    102.24469863	    -21.30203264	      3.24324267	     99.78309445	     25.65862723	    -32.56884563	      0.00000000	    105.37532316	    -12.46846661	     -7.26869777	     98.22036702	     35.67036847	      2.24273851	      0.00000000	    -42.49824773	      2.19602881	     -5.29619965	     52.81947109	    -34.97177130	     11.92969874	     78.71164268	     83.90507508	     76.43404463	    -21.44253230	     30.14983179	     45.22072253	     65.23656374
      7.33333330	    -42.70472515	      2.24928256	      8.77027128	      1.00283305	      0.77664299	     -0.08266642	     97.69918109	    -21.98652860	      2.24767154	     95.78858040	     25.38747892	    -32.94011820	      0.00000000	    101.73975059	    -11.61047996	     -7.63102167	     96.40969121	     33.58939987	      1.13101061	      0.00000000	    -42.02432396	      2.91170296	     -4.05364007	     46.81873787	    -36.24993348	      8.43299944	     76.94899105	     84.11315267	     72.93000849	    -19.23888541	     25.59693043	     51.52611814	     68.49246624
      7.35000000	    -41.56779911	      2.21269800	      8.45650185	      1.01877189	      0.79247925	     -0.08205682	     93.53616574	    -21.59537615	      0.86787622	     92.52933638	     26.40040826	    -31.45372892	      0.00000000	     97.06796823	    -11.82599102	     -6.50758864	     95.02164578	     30.06471552	     -2.90634208	      0.00000000	    -40.77926151	      3.44277963	     -1.38644691	     37.94222570	    -36.43174924	      2.19105628	     75.90666640	     84.90404901	     68.18693000	    -16.34607734	     19.87014483	     59.14000591	     72.57922966
      7.36666670	    -40.81803312	      2.44031822	      8.91843783	      1.00589243	      0.82819880	     -0.08307249	     90.12345582	    -21.76230784	     -0.08312035	     88.69227174	     26.04891518	    -30.19681997	      0.00000000	     91.84639487	    -11.07272763	     -5.79052435	     91.06035613	     27.33980045	     -4.88043826	      0.00000000	    -39.51046330	      3.79180775	      1.87776047	     28.96244836	    -37.29451556	     -5.32407074	     73.05188604	     85.54366844	     66.86154250	    -13.14474126	     21.95109888	     58.95220238	     78.48270818
      7.38333330	    -38.99829819	      2.29773938	      8.27465725	      1.02398516	      0.84347110	     -0.07449000	     86.33609265	    -20.86993147	     -1.46126523	     86.09162471	     25.66883248	    -29.87962229	      0.00000000	     86.40164606	    -11.32521354	     -4.25534190	     87.08753826	     25.69615588	     -6.35031048	      0.00000000	    -40.65806062	      3.63766089	      0.38054695	     27.62759440	    -33.42449673	     -3.82010316	     68.40882984	     86.24447495	     57.19162208	    -16.69121110	     20.56920296	     49.09699718	     78.57109429
      7.40000000	    -37.34508826	      2.36125574	      7.92660276	      1.03343937	      0.87476226	     -0.07137356	     81.84158117	    -20.18534359	     -2.59274452	     82.50962721	     24.80592770	    -29.35309449	      0.00000000	     80.94188815	    -11.17950013	     -3.56046288	     82.22976804	     24.85022982	     -6.69245033	      0.00000000	    -41.40756014	      3.49179249	     -2.34565100	     26.07807025	    -29.25147592	     -2.73051820	     63.59475590	     87.67038511	     47.61423711	    -18.90786049	     16.79766435	     38.81450348	     77.76091261
      7.41666670	    -34.54342544	      2.67591697	      6.82192213	      1.04259475	      0.88752918	     -0.06839308	     77.22915777	    -19.04397441	     -3.27548541	     80.22773129	     23.79209657	    -29.81910297	      0.00000000	     75.07474278	    -11.77924362	     -3.28740783	     78.48289878	     25.06445547	     -6.69874097	      0.00000000	    -42.60586754	      2.14617208	     -4.25372079	     23.17795123	    -25.61870102	     -2.45956940	     58.03896990	     88.01119523	     39.20913490	    -20.72198985	     13.47070924	     29.76797098	     76.37413001
